<svg id="Layer_2" data-name="Layer 2" xmlns="http://www.w3.org/2000/svg" viewBox="0 0 299.38 475.99"><defs><style>.cls-1{fill:#f43b49;}.cls-2{fill:#f26569;}.cls-3{fill:#f19891;}.cls-4{fill:#ec0d14;}.cls-5{fill:#231f20;}.cls-6{fill:#fff;}</style></defs><title>Koired</title><path class="cls-1" d="M610.59,481a42,42,0,0,0-12.12,29.43c0,11.75,5,22.86,7.47,34.35s1.63,26.47-7.27,34.14c-0.25-10.77-7.49-20.22-15.93-26.92s-18.28-11.44-26.83-18c-25.26-19.38-36.5-55.21-26.84-85.55C557.73,455.8,585,466.3,610.59,481Z" transform="translate(-455.87 -256.59)"/><path class="cls-1" d="M642.27,667.46C623.87,698,590.38,717.72,555,721.89a93.93,93.93,0,0,0,18.75-41.65c2.75-15.47,1.59-31.48,4.94-46.83s13-31,28.26-34.56a28.24,28.24,0,0,1,34.5,24.28C643,637,649.46,655.52,642.27,667.46Z" transform="translate(-455.87 -256.59)"/><path class="cls-2" d="M638.34,637.4a20.36,20.36,0,0,0-27.92-21.59c-9.1,3.75-16.17,12.28-17.13,22.08-1.61,16.43-3.23,32.95-7.44,48.91-3.12,11.83-8.31,24.1-18.74,30.51,16.67-3.84,34.32-8.29,47.67-19C631.79,684.7,635.39,659,638.34,637.4Z" transform="translate(-455.87 -256.59)"/><path class="cls-3" d="M539,453.66L538.55,455a30,30,0,0,0-.88,3.84,29.64,29.64,0,0,0-.32,6,35.68,35.68,0,0,0,1.26,7.67A44.19,44.19,0,0,0,542,481a48.71,48.71,0,0,0,5.72,8.43c0.55,0.62,1.21,1.4,1.81,2s1.22,1.3,1.89,1.93c1.3,1.29,2.69,2.53,4.11,3.76a107.93,107.93,0,0,0,9.13,6.93c3.16,2.23,6.42,4.37,9.63,6.51s6.34,4.34,9.31,6.58a81.47,81.47,0,0,1,8.18,7,56.08,56.08,0,0,1,6.37,7.28,47.72,47.72,0,0,1,4.27,6.94,57.29,57.29,0,0,1,2.53,5.7c0.62,1.61,1,2.89,1.32,3.77l0.42,1.35L606.08,548c-0.4-.82-1-2-1.84-3.52s-1.85-3.29-3.14-5.27a58.51,58.51,0,0,0-4.74-6.28,67.86,67.86,0,0,0-6.59-6.52c-2.49-2.16-5.27-4.25-8.23-6.34s-6.14-4.09-9.35-6.2-6.53-4.21-9.79-6.46a111.78,111.78,0,0,1-9.37-7.29,58.56,58.56,0,0,1-4.23-4.07c-0.67-.69-1.32-1.43-2-2.16s-1.17-1.41-1.81-2.18a45.26,45.26,0,0,1-5.67-9.34,40.38,40.38,0,0,1-3-9.29,32.7,32.7,0,0,1-.55-8.2,26.81,26.81,0,0,1,1.07-6.2,24.29,24.29,0,0,1,1.45-3.75Z" transform="translate(-455.87 -256.59)"/><path class="cls-3" d="M543.2,488l0.19,1c0.11,0.64.33,1.55,0.61,2.7s0.7,2.54,1.21,4.11a54,54,0,0,0,2.07,5.12,51.21,51.21,0,0,0,3.13,5.68c0.61,1,1.29,1.93,2,2.9l1.12,1.42c0.4,0.49.8,1,1.21,1.44a64.75,64.75,0,0,0,5.44,5.48c1.95,1.8,4,3.54,6.13,5.26s4.21,3.48,6.28,5.24,4.05,3.57,5.87,5.45a51.68,51.68,0,0,1,4.92,5.73c0.35,0.49.7,1,1,1.47s0.62,0.94.93,1.44a30.43,30.43,0,0,1,1.6,2.88,25.31,25.31,0,0,1,2,5.41,28.06,28.06,0,0,1,.68,4.34c0.1,1.21.11,2.15,0.12,2.8s0,1,0,1-0.23-1.36-.76-3.68a37.68,37.68,0,0,0-1.23-4.07,28.65,28.65,0,0,0-2.4-4.88c-0.53-.84-1.11-1.71-1.74-2.58-0.3-.43-0.65-0.88-1-1.33L581.51,541a64.48,64.48,0,0,0-5-5.26c-1.83-1.73-3.81-3.43-5.85-5.16l-6.29-5.17c-2.1-1.77-4.2-3.57-6.19-5.45a61.93,61.93,0,0,1-5.49-5.93c-0.43-.52-0.81-1-1.19-1.53s-0.74-1.06-1.1-1.59c-0.69-1.06-1.34-2.12-1.92-3.17a42.56,42.56,0,0,1-2.8-6.16,41.44,41.44,0,0,1-2.3-9.76c-0.14-1.2-.18-2.15-0.2-2.79Z" transform="translate(-455.87 -256.59)"/><path class="cls-1" d="M515.4,272.69c0.5-4.22-4.13-7.63-8.38-7.44s-7.95,2.82-11.24,5.51a132.44,132.44,0,0,0-37.86,50.42c-1.17,2.76-2.27,5.68-2,8.66s2.25,6,5.2,6.53c1.64,0.27,2.73.89,4.4,0.89" transform="translate(-455.87 -256.59)"/><path class="cls-4" d="M522.91,732.58c76.68-2.13,146.45-38.62,189.86-101.86s54.48-147.51,28.89-219.82S658.9,277.79,584.46,259.29c-44.31-11-94.76,12.58-114.71,53.65s-7.32,95.31,28.73,123.33c29.78,23.16,70.9,28.44,99.4,53.15,14.12,12.24,24.25,28.63,30.87,46.1a197.56,197.56,0,0,1,12.54,70.08c0,23.91-5.12,48.41-18.57,68.18C611.64,690,595.47,702.32,578,711.39S541.67,726.68,522.91,732.58Z" transform="translate(-455.87 -256.59)"/><path class="cls-5" d="M487.71,383.78a50.57,50.57,0,0,0,18.84,26.51c8.65,6.21,18,3.2,17.35-8.53a39.28,39.28,0,0,0-10.81-24.39c-3.88-4.11-9.49-9.4-15.34-10.24C487.83,365.71,485.54,376.43,487.71,383.78Z" transform="translate(-455.87 -256.59)"/><path class="cls-6" d="M569.75,359.3c5.89,25.12,40.5,56.28,67.6,43.86,12.44-5.7,18.52-19.62,19.5-32.61,1.33-17.71-12.21-32.66-26-41.89-14.54-9.73-37.62-20.12-52.86-6.08C568.46,331.36,566.94,347.33,569.75,359.3Z" transform="translate(-455.87 -256.59)"/></svg>