<svg id="Layer_3" data-name="Layer 3" xmlns="http://www.w3.org/2000/svg" viewBox="0 0 299.38 475.99"><defs><style>.cls-1{fill:#f43b49;}.cls-2{fill:#f26569;}.cls-3{fill:#f19891;}.cls-4{fill:#d1d1d1;}.cls-5{fill:#eaeaea;}.cls-6{fill:#231f20;}.cls-7{fill:#ec0d14;}</style></defs><title>Koiwhite</title><path class="cls-1" d="M388.41,512a42,42,0,0,0,12.12-29.43c0-11.75-5-22.86-7.47-34.35s-1.63-26.47,7.27-34.14c0.25,10.77,7.49,20.22,15.93,26.92s18.28,11.44,26.83,18c25.26,19.38,36.5,55.21,26.84,85.55C441.27,537.2,414,526.7,388.41,512Z" transform="translate(-243.76 -260.42)"/><path class="cls-1" d="M356.73,325.54c18.4-30.56,51.89-50.25,87.31-54.42a93.93,93.93,0,0,0-18.75,41.65c-2.75,15.47-1.59,31.48-4.94,46.83s-13,31-28.26,34.56a28.24,28.24,0,0,1-34.5-24.28C356,356,349.54,337.48,356.73,325.54Z" transform="translate(-243.76 -260.42)"/><path class="cls-2" d="M360.66,355.6a20.36,20.36,0,0,0,27.92,21.59c9.1-3.75,16.17-12.28,17.13-22.08,1.61-16.43,3.23-32.95,7.44-48.91,3.12-11.83,8.31-24.1,18.74-30.51-16.67,3.84-34.32,8.29-47.67,19C367.21,308.3,363.61,334,360.66,355.6Z" transform="translate(-243.76 -260.42)"/><path class="cls-3" d="M460,539.34l0.45-1.34a30,30,0,0,0,.88-3.84,29.64,29.64,0,0,0,.32-6,35.68,35.68,0,0,0-1.26-7.67A44.18,44.18,0,0,0,457,512a48.71,48.71,0,0,0-5.72-8.43c-0.55-.62-1.2-1.4-1.81-2s-1.22-1.3-1.89-1.93c-1.3-1.29-2.69-2.53-4.11-3.76a107.91,107.91,0,0,0-9.13-6.93c-3.16-2.23-6.42-4.37-9.63-6.51s-6.34-4.34-9.31-6.58a81.47,81.47,0,0,1-8.18-7,56.07,56.07,0,0,1-6.37-7.28,47.73,47.73,0,0,1-4.27-6.94,57.28,57.28,0,0,1-2.53-5.7c-0.62-1.61-1-2.89-1.32-3.77l-0.42-1.35,0.63,1.26c0.4,0.82,1,2,1.84,3.52s1.85,3.29,3.14,5.27a58.53,58.53,0,0,0,4.74,6.28,67.85,67.85,0,0,0,6.59,6.52c2.49,2.16,5.27,4.25,8.23,6.34s6.14,4.09,9.35,6.2,6.53,4.21,9.79,6.46a111.8,111.8,0,0,1,9.37,7.29,58.56,58.56,0,0,1,4.23,4.07c0.67,0.69,1.32,1.43,2,2.16s1.17,1.41,1.81,2.18a45.25,45.25,0,0,1,5.67,9.34,40.38,40.38,0,0,1,3,9.29,32.7,32.7,0,0,1,.55,8.2,26.81,26.81,0,0,1-1.07,6.2,24.29,24.29,0,0,1-1.45,3.75Z" transform="translate(-243.76 -260.42)"/><path class="cls-3" d="M455.8,505l-0.19-1c-0.11-.64-0.33-1.55-0.61-2.7s-0.7-2.54-1.21-4.11a54,54,0,0,0-2.07-5.12,51.21,51.21,0,0,0-3.13-5.68c-0.61-1-1.29-1.93-2-2.9l-1.12-1.42c-0.4-.49-0.8-1-1.21-1.44a64.75,64.75,0,0,0-5.44-5.48c-1.95-1.8-4-3.54-6.13-5.26s-4.21-3.48-6.28-5.24-4.05-3.57-5.87-5.45a51.69,51.69,0,0,1-4.92-5.73c-0.35-.49-0.7-1-1-1.47s-0.62-.94-0.93-1.44a30.43,30.43,0,0,1-1.6-2.88,25.31,25.31,0,0,1-2-5.41,28.06,28.06,0,0,1-.68-4.34c-0.1-1.21-.11-2.15-0.12-2.8v-1s0.23,1.36.76,3.68a37.69,37.69,0,0,0,1.23,4.07,28.65,28.65,0,0,0,2.4,4.88c0.53,0.84,1.11,1.71,1.74,2.58,0.3,0.43.65,0.88,1,1.33l1.05,1.32a64.49,64.49,0,0,0,5,5.26c1.83,1.73,3.81,3.43,5.85,5.16l6.29,5.17c2.1,1.77,4.2,3.57,6.19,5.45a61.94,61.94,0,0,1,5.49,5.93c0.43,0.52.81,1,1.19,1.53s0.74,1.06,1.1,1.59c0.69,1.06,1.34,2.12,1.92,3.17a42.56,42.56,0,0,1,2.8,6.16,41.44,41.44,0,0,1,2.3,9.76c0.14,1.2.18,2.15,0.2,2.79Z" transform="translate(-243.76 -260.42)"/><path class="cls-4" d="M483.6,720.31c-0.5,4.22,4.13,7.63,8.38,7.44s7.95-2.82,11.24-5.51a132.44,132.44,0,0,0,37.86-50.42c1.17-2.76,2.27-5.68,2-8.66s-2.25-6-5.2-6.53c-1.64-.27-2.73-0.89-4.4-0.89" transform="translate(-243.76 -260.42)"/><path class="cls-5" d="M476.09,260.42C399.41,262.55,329.64,299,286.23,362.28S231.76,509.79,257.34,582.1s82.76,133.11,157.2,151.61c44.31,11,94.76-12.58,114.71-53.65s7.32-95.31-28.73-123.33c-29.78-23.16-70.9-28.44-99.4-53.15-14.12-12.24-24.25-28.63-30.87-46.1a197.56,197.56,0,0,1-12.54-70.08c0-23.91,5.12-48.41,18.57-68.18,11.07-16.26,27.24-28.53,44.69-37.6S457.33,266.32,476.09,260.42Z" transform="translate(-243.76 -260.42)"/><path class="cls-6" d="M511.29,609.22a50.57,50.57,0,0,0-18.84-26.51c-8.65-6.21-18-3.2-17.35,8.53a39.28,39.28,0,0,0,10.81,24.39c3.88,4.11,9.49,9.4,15.34,10.24C511.17,627.29,513.46,616.57,511.29,609.22Z" transform="translate(-243.76 -260.42)"/><path class="cls-7" d="M429.25,633.7c-5.89-25.12-40.5-56.28-67.6-43.86-12.44,5.7-18.52,19.62-19.5,32.61-1.33,17.71,12.21,32.66,26,41.89,14.54,9.73,37.62,20.12,52.86,6.08C430.54,661.64,432.06,645.67,429.25,633.7Z" transform="translate(-243.76 -260.42)"/></svg>